M48
;Layer_Color=9474304
;FILE_FORMAT=4:4
METRIC,LZ
;TYPE=PLATED
T1F00S00C0.3000
T2F00S00C0.9000
T3F00S00C2.5000
;TYPE=NON_PLATED
T4F00S00C0.8000
T5F00S00C1.8000
%
T01
X006055Y000315
X00603Y0004075
X006305Y0004025
X006305Y0003225
X00642Y0003475
X006485Y000435
X0065525Y00038
X005735Y00032464
X005315Y00032464
X0042275Y0003675
X0047225Y000965
X0036Y00084
X002945Y00088
X0027525Y0007125
X0026575Y00064
X0025Y0006175
X00251225Y00069725
X00245375Y00055375
X0024025Y00041755
X00258Y0004075
X0027425Y0003375
X00304
X0022225Y000335
X002195Y0004275
X0021825Y0005225
X00202Y00062528
X00196Y0005725
X0020425Y000375
X001985Y00085
X0023125Y000813
X002455Y000855
X00233Y0006425
X00183Y00048
X0015475Y000625
X00131Y0004625
X001115Y0003175
X000935
X00076Y00037052
X0005725Y000415
X000405Y00035
X0002525Y0004425
X001765Y00085
X00174Y00113
X00116143Y00111536
X00090714
Y00176536
X00116143
X0013475Y001765
X00167Y00176536
X001535Y0023225
X00065286Y00237
X0008925Y0027125
X00065286Y00174464
X00039857
X002045Y0021025
X0022225Y0029125
X0032075Y0027475
X0033175Y0026375
X0032075Y0025275
X00323Y0023625
X0031625
X003265Y001715
X00336613Y00171363
X0038625Y001705
Y001805
X00411679Y001705
X00437107
X00434Y0020725
X0051275Y0020475
Y002115
X005625Y0019025
X005885Y0011175
X00263714Y00111536
X0028125Y0014175
X00215Y0010975
X0020375
X005975Y0011175
X006485Y0016375
T02
X006425Y000968
X00590678Y00258
X0056525
X00539821
X00514393
X00463536
X00438136
X00387279
X00361879
X006425Y001222
T03
X0003Y0027
X00646
T04
X0Y0012375
Y001355
Y001475
Y001595
X0067625
Y001475
Y001355
Y0012375
T05
X00656Y0006
X0002
M30
