G04*
G04 #@! TF.GenerationSoftware,Altium Limited,Altium Designer,19.0.12 (326)*
G04*
G04 Layer_Physical_Order=1*
G04 Layer_Color=255*
%FSLAX44Y44*%
%MOMM*%
G71*
G01*
G75*
%ADD14C,0.2000*%
G04:AMPARAMS|DCode=16|XSize=0.6mm|YSize=0.6mm|CornerRadius=0.06mm|HoleSize=0mm|Usage=FLASHONLY|Rotation=0.000|XOffset=0mm|YOffset=0mm|HoleType=Round|Shape=RoundedRectangle|*
%AMROUNDEDRECTD16*
21,1,0.6000,0.4800,0,0,0.0*
21,1,0.4800,0.6000,0,0,0.0*
1,1,0.1200,0.2400,-0.2400*
1,1,0.1200,-0.2400,-0.2400*
1,1,0.1200,-0.2400,0.2400*
1,1,0.1200,0.2400,0.2400*
%
%ADD16ROUNDEDRECTD16*%
%ADD17R,1.2700X4.8000*%
G04:AMPARAMS|DCode=18|XSize=1.3mm|YSize=0.8mm|CornerRadius=0.1mm|HoleSize=0mm|Usage=FLASHONLY|Rotation=180.000|XOffset=0mm|YOffset=0mm|HoleType=Round|Shape=RoundedRectangle|*
%AMROUNDEDRECTD18*
21,1,1.3000,0.6000,0,0,180.0*
21,1,1.1000,0.8000,0,0,180.0*
1,1,0.2000,-0.5500,0.3000*
1,1,0.2000,0.5500,0.3000*
1,1,0.2000,0.5500,-0.3000*
1,1,0.2000,-0.5500,-0.3000*
%
%ADD18ROUNDEDRECTD18*%
G04:AMPARAMS|DCode=19|XSize=0.6mm|YSize=0.6mm|CornerRadius=0.06mm|HoleSize=0mm|Usage=FLASHONLY|Rotation=90.000|XOffset=0mm|YOffset=0mm|HoleType=Round|Shape=RoundedRectangle|*
%AMROUNDEDRECTD19*
21,1,0.6000,0.4800,0,0,90.0*
21,1,0.4800,0.6000,0,0,90.0*
1,1,0.1200,0.2400,0.2400*
1,1,0.1200,0.2400,-0.2400*
1,1,0.1200,-0.2400,-0.2400*
1,1,0.1200,-0.2400,0.2400*
%
%ADD19ROUNDEDRECTD19*%
%ADD30C,1.6000*%
%ADD32C,1.0000*%
%ADD33R,0.4500X2.3000*%
%ADD34C,1.5000*%
%ADD35C,0.4000*%
%ADD36C,0.9000*%
%ADD37C,5.0000*%
G04:AMPARAMS|DCode=38|XSize=1.524mm|YSize=1.524mm|CornerRadius=0.1905mm|HoleSize=0mm|Usage=FLASHONLY|Rotation=90.000|XOffset=0mm|YOffset=0mm|HoleType=Round|Shape=RoundedRectangle|*
%AMROUNDEDRECTD38*
21,1,1.5240,1.1430,0,0,90.0*
21,1,1.1430,1.5240,0,0,90.0*
1,1,0.3810,0.5715,0.5715*
1,1,0.3810,0.5715,-0.5715*
1,1,0.3810,-0.5715,-0.5715*
1,1,0.3810,-0.5715,0.5715*
%
%ADD38ROUNDEDRECTD38*%
G04:AMPARAMS|DCode=39|XSize=1.6mm|YSize=1.6mm|CornerRadius=0.4mm|HoleSize=0mm|Usage=FLASHONLY|Rotation=0.000|XOffset=0mm|YOffset=0mm|HoleType=Round|Shape=RoundedRectangle|*
%AMROUNDEDRECTD39*
21,1,1.6000,0.8000,0,0,0.0*
21,1,0.8000,1.6000,0,0,0.0*
1,1,0.8000,0.4000,-0.4000*
1,1,0.8000,-0.4000,-0.4000*
1,1,0.8000,-0.4000,0.4000*
1,1,0.8000,0.4000,0.4000*
%
%ADD39ROUNDEDRECTD39*%
%ADD40C,0.8000*%
%ADD41C,1.5000*%
G04:AMPARAMS|DCode=42|XSize=1.524mm|YSize=1.524mm|CornerRadius=0.1905mm|HoleSize=0mm|Usage=FLASHONLY|Rotation=0.000|XOffset=0mm|YOffset=0mm|HoleType=Round|Shape=RoundedRectangle|*
%AMROUNDEDRECTD42*
21,1,1.5240,1.1430,0,0,0.0*
21,1,1.1430,1.5240,0,0,0.0*
1,1,0.3810,0.5715,-0.5715*
1,1,0.3810,-0.5715,-0.5715*
1,1,0.3810,-0.5715,0.5715*
1,1,0.3810,0.5715,0.5715*
%
%ADD42ROUNDEDRECTD42*%
%ADD43C,0.6000*%
G36*
X326000Y184000D02*
X313250D01*
Y239500D01*
X326000D01*
Y184000D01*
D02*
G37*
G36*
X529428D02*
X509750Y184000D01*
Y232000D01*
X529428Y232000D01*
Y184000D01*
D02*
G37*
G36*
X145179Y169673D02*
X144693Y168500D01*
X133721D01*
Y117500D01*
X139023D01*
Y62701D01*
X139216Y61725D01*
X139769Y60898D01*
X147370Y53297D01*
X146884Y52124D01*
X145750D01*
X144602Y51648D01*
X132602Y39648D01*
X132127Y38500D01*
X132126Y28500D01*
X126049D01*
Y102245D01*
X130552Y106748D01*
X131105Y107575D01*
X131299Y108550D01*
Y128500D01*
X131299Y128500D01*
Y171866D01*
X132569Y172545D01*
X132994Y172261D01*
X134750Y171912D01*
X136506Y172261D01*
X137994Y173256D01*
X138459Y173951D01*
X140901D01*
X145179Y169673D01*
D02*
G37*
G36*
X32007Y227670D02*
Y209500D01*
X39857D01*
Y208000D01*
X41357D01*
Y182500D01*
X47707D01*
X47951Y181331D01*
Y169669D01*
X47707Y168500D01*
X46681Y168500D01*
X42406D01*
Y170755D01*
X43102Y171220D01*
X44096Y172708D01*
X44445Y174464D01*
X44096Y176220D01*
X43102Y177709D01*
X41613Y178703D01*
X39857Y179053D01*
X38101Y178703D01*
X36613Y177709D01*
X35618Y176220D01*
X35269Y174464D01*
X35618Y172708D01*
X36613Y171220D01*
X37308Y170755D01*
Y168500D01*
X32007D01*
Y117500D01*
X47707Y117500D01*
X47951Y116331D01*
Y86556D01*
X46198Y84802D01*
X45645Y83975D01*
X45451Y83000D01*
Y33056D01*
X43698Y31302D01*
X43145Y30475D01*
X42951Y29500D01*
Y28500D01*
X36049D01*
Y35694D01*
X42802Y42448D01*
X43355Y43274D01*
X43549Y44250D01*
Y100700D01*
X43355Y101675D01*
X42802Y102502D01*
X30549Y114756D01*
Y228223D01*
X30737Y228348D01*
X32007Y227670D01*
D02*
G37*
G36*
X582202Y253638D02*
X582380Y253209D01*
X583903Y251224D01*
X585887Y249702D01*
X586317Y249524D01*
X623672Y212168D01*
Y159750D01*
X623982Y157401D01*
X624888Y155211D01*
X626331Y153331D01*
X633422Y146240D01*
Y131278D01*
X629200D01*
X629200Y131278D01*
X626851Y130968D01*
X624661Y130062D01*
X622781Y128619D01*
X612331Y118169D01*
X610888Y116289D01*
X609982Y114099D01*
X609672Y111750D01*
Y109533D01*
X608499Y109047D01*
X601648Y115898D01*
X600500Y116374D01*
X585500D01*
X584352Y115898D01*
X575352Y106898D01*
X574876Y105750D01*
X574876Y95250D01*
X575352Y94102D01*
X576500Y93626D01*
Y84260D01*
X576138Y83789D01*
X575232Y81600D01*
X574922Y79250D01*
Y69500D01*
X575232Y67151D01*
X576138Y64961D01*
X577581Y63081D01*
X586831Y53831D01*
X588711Y52389D01*
X590900Y51482D01*
X593250Y51172D01*
X599031D01*
X617931Y32272D01*
Y28500D01*
X613069D01*
Y28972D01*
X612797Y30338D01*
X612023Y31495D01*
X609495Y34023D01*
X609009Y34348D01*
X608744Y34744D01*
X607256Y35739D01*
X605500Y36088D01*
X603744Y35739D01*
X602419Y34854D01*
X602134Y34797D01*
X600977Y34023D01*
X600203Y32866D01*
X599931Y31500D01*
Y28500D01*
X564403D01*
X563655Y29749D01*
X563898Y30352D01*
X564374Y31500D01*
X564374Y39250D01*
X564368Y39265D01*
Y119716D01*
X595004Y150353D01*
X596330Y152337D01*
X596796Y154678D01*
Y223321D01*
X596330Y225663D01*
X595004Y227647D01*
X571989Y250663D01*
X572025Y251225D01*
X573548Y253209D01*
X574505Y255520D01*
X574832Y258000D01*
X574648Y259397D01*
X575851Y259990D01*
X582202Y253638D01*
D02*
G37*
G36*
X286293Y168500D02*
Y144500D01*
X294143D01*
Y141500D01*
X286293D01*
Y118049D01*
X277686D01*
X276564Y119138D01*
Y168500D01*
X277334Y169451D01*
X285523D01*
X286293Y168500D01*
D02*
G37*
G36*
X235436Y229460D02*
Y182500D01*
X251136D01*
Y230850D01*
X252309Y231336D01*
X254701Y228944D01*
Y184500D01*
X254895Y183524D01*
X255448Y182698D01*
X258826Y179319D01*
X258300Y178049D01*
X258250D01*
X257274Y177855D01*
X256448Y177302D01*
X247645Y168500D01*
X235436D01*
Y117549D01*
X229306D01*
X225707Y121148D01*
Y168500D01*
X210007D01*
Y117500D01*
X222145D01*
X226448Y113198D01*
X227274Y112645D01*
X228250Y112451D01*
X250650D01*
X251625Y112645D01*
X252452Y113198D01*
X255552Y116298D01*
X256105Y117125D01*
X256299Y118101D01*
Y164194D01*
X259594Y167489D01*
X260864Y166963D01*
Y117500D01*
X263130D01*
X263789Y116230D01*
X263746Y116170D01*
X263618Y116105D01*
X261958Y115775D01*
X260470Y114780D01*
X259475Y113292D01*
X259126Y111536D01*
X259475Y109780D01*
X260470Y108292D01*
X261958Y107297D01*
X263158Y107058D01*
X263630Y105735D01*
X255444Y97549D01*
X232222D01*
X231246Y97355D01*
X230419Y96802D01*
X215198Y81581D01*
X214819Y81014D01*
X213549Y81257D01*
Y104335D01*
X214592Y105243D01*
X215000Y105162D01*
X216756Y105511D01*
X218244Y106506D01*
X219239Y107994D01*
X219588Y109750D01*
X219239Y111506D01*
X218244Y112994D01*
X216756Y113989D01*
X215000Y114338D01*
X213244Y113989D01*
X211756Y112994D01*
X210761Y111506D01*
X210412Y109750D01*
X210575Y108930D01*
X209435Y107789D01*
X209302Y107802D01*
X208175Y108930D01*
X208338Y109750D01*
X207989Y111506D01*
X206994Y112994D01*
X205506Y113989D01*
X203750Y114338D01*
X201994Y113989D01*
X200506Y112994D01*
X199511Y111506D01*
X199162Y109750D01*
X199448Y108311D01*
X198737Y107041D01*
X196100D01*
X195281Y106878D01*
X194586Y106414D01*
X194122Y105719D01*
X193988Y105049D01*
X192012D01*
X191878Y105719D01*
X191414Y106414D01*
X190719Y106878D01*
X189900Y107041D01*
X186564D01*
X183049Y110556D01*
Y163386D01*
X182855Y164361D01*
X182302Y165188D01*
X174652Y172838D01*
X173825Y173391D01*
X172850Y173585D01*
X171903D01*
X171252Y174633D01*
X171254Y174855D01*
X171588Y176536D01*
X171239Y178291D01*
X170244Y179780D01*
X169549Y180245D01*
Y182500D01*
X174850D01*
Y233500D01*
X159150D01*
X158315Y234076D01*
X159004Y235201D01*
X229694D01*
X235436Y229460D01*
D02*
G37*
G36*
X639412Y295671D02*
X637786Y295281D01*
X633932Y293685D01*
X630376Y291505D01*
X627204Y288796D01*
X624495Y285624D01*
X622315Y282068D01*
X620719Y278214D01*
X619745Y274158D01*
X619418Y270000D01*
X619745Y265842D01*
X620719Y261786D01*
X622315Y257932D01*
X624495Y254375D01*
X627204Y251204D01*
X630376Y248495D01*
X633932Y246315D01*
X637786Y244719D01*
X641842Y243745D01*
X646000Y243418D01*
X650158Y243745D01*
X654214Y244719D01*
X658068Y246315D01*
X661625Y248495D01*
X664796Y251204D01*
X667505Y254375D01*
X669685Y257932D01*
X671281Y261786D01*
X671671Y263412D01*
X672941Y263262D01*
Y222804D01*
X669598Y222139D01*
X669319Y222023D01*
X669024Y221965D01*
X665402Y220464D01*
X665151Y220297D01*
X664873Y220182D01*
X661613Y218003D01*
X661400Y217790D01*
X661149Y217623D01*
X658377Y214851D01*
X658210Y214600D01*
X657997Y214387D01*
X655818Y211127D01*
X655703Y210849D01*
X655536Y210598D01*
X654035Y206976D01*
X653977Y206681D01*
X653861Y206402D01*
X653096Y202557D01*
Y202256D01*
X653038Y201960D01*
Y198040D01*
X653096Y197744D01*
Y197443D01*
X653861Y193598D01*
X653977Y193319D01*
X654035Y193024D01*
X655536Y189402D01*
X655703Y189151D01*
X655818Y188873D01*
X655934Y188699D01*
X656000Y140000D01*
X668000D01*
Y25750D01*
X658424D01*
X657969Y27020D01*
X658547Y27884D01*
X658819Y29250D01*
Y33362D01*
X659398Y33602D01*
X661398Y35602D01*
X661874Y36750D01*
Y43500D01*
X661398Y44648D01*
X657578Y48468D01*
X657986Y49671D01*
X658741Y49770D01*
X661295Y50828D01*
X663489Y52511D01*
X665172Y54705D01*
X666230Y57259D01*
X666591Y60000D01*
X666230Y62741D01*
X665172Y65295D01*
X663489Y67489D01*
X661295Y69172D01*
X658741Y70230D01*
X656000Y70591D01*
X653259Y70230D01*
X650705Y69172D01*
X648511Y67489D01*
X646828Y65295D01*
X645770Y62741D01*
X645409Y60000D01*
X645641Y58243D01*
X644438Y57650D01*
X641578Y60510D01*
Y70500D01*
X641268Y72849D01*
X640361Y75039D01*
X638919Y76919D01*
X637188Y78650D01*
X646862Y88324D01*
X647291Y88502D01*
X649276Y90025D01*
X650798Y92009D01*
X651756Y94320D01*
X652082Y96800D01*
X651756Y99280D01*
X650798Y101591D01*
X649276Y103575D01*
X647291Y105098D01*
X644980Y106055D01*
X642500Y106382D01*
X640020Y106055D01*
X637709Y105098D01*
X635725Y103575D01*
X634202Y101591D01*
X634024Y101162D01*
X628278Y95415D01*
X627201Y96135D01*
X627518Y96901D01*
X627828Y99250D01*
Y107990D01*
X632960Y113122D01*
X636237D01*
X636785Y113013D01*
X648215D01*
X649544Y113278D01*
X650670Y114030D01*
X651422Y115156D01*
X651687Y116485D01*
Y127915D01*
X651578Y128463D01*
Y150000D01*
X651578Y150000D01*
X651268Y152350D01*
X650361Y154539D01*
X648919Y156419D01*
X648919Y156419D01*
X641828Y163510D01*
Y215928D01*
X641518Y218278D01*
X640611Y220467D01*
X639169Y222347D01*
X599155Y262362D01*
X598977Y262791D01*
X597454Y264775D01*
X595469Y266298D01*
X595040Y266476D01*
X577597Y283919D01*
X575717Y285361D01*
X573528Y286268D01*
X571179Y286578D01*
X504500D01*
X502150Y286268D01*
X499961Y285361D01*
X498081Y283919D01*
X489490Y275328D01*
X471786D01*
X469436Y275018D01*
X467247Y274111D01*
X465367Y272669D01*
X459174Y266476D01*
X458745Y266298D01*
X456760Y264775D01*
X455238Y262791D01*
X454280Y260480D01*
X453954Y258000D01*
X454280Y255520D01*
X455238Y253209D01*
X456760Y251224D01*
X458266Y250069D01*
X457835Y248799D01*
X447028D01*
X446744Y249205D01*
X446465Y250069D01*
X447058Y250956D01*
X447322Y252285D01*
Y256500D01*
X438136D01*
X428949D01*
Y252285D01*
X429213Y250956D01*
X429806Y250069D01*
X429528Y249205D01*
X429244Y248799D01*
X392979D01*
X392548Y250069D01*
X394054Y251224D01*
X395577Y253209D01*
X396534Y255520D01*
X396861Y258000D01*
X396534Y260480D01*
X395577Y262791D01*
X394054Y264775D01*
X392070Y266298D01*
X389759Y267255D01*
X387279Y267582D01*
X384799Y267255D01*
X382488Y266298D01*
X380503Y264775D01*
X378980Y262791D01*
X378023Y260480D01*
X377697Y258000D01*
X378023Y255520D01*
X378980Y253209D01*
X380503Y251224D01*
X382009Y250069D01*
X381578Y248799D01*
X370771D01*
X370486Y249205D01*
X370208Y250069D01*
X370801Y250956D01*
X371065Y252285D01*
Y256500D01*
X361879D01*
X352692D01*
Y253159D01*
X351422Y252633D01*
X349049Y255005D01*
Y267750D01*
X348855Y268725D01*
X348302Y269552D01*
X341427Y276427D01*
X340601Y276980D01*
X339625Y277174D01*
X335681D01*
X325302Y287552D01*
X324475Y288105D01*
X323500Y288299D01*
X318262D01*
X318128Y288969D01*
X317664Y289664D01*
X316969Y290128D01*
X316150Y290291D01*
X311350D01*
X310531Y290128D01*
X309836Y289664D01*
X309559Y289250D01*
X307941D01*
X307664Y289664D01*
X306969Y290128D01*
X306150Y290291D01*
X301350D01*
X300531Y290128D01*
X299836Y289664D01*
X299372Y288969D01*
X299209Y288150D01*
Y284814D01*
X291444Y277049D01*
X105751D01*
X104776Y276855D01*
X103949Y276302D01*
X95446Y267799D01*
X66651D01*
X65675Y267605D01*
X64848Y267052D01*
X54298Y256502D01*
X53293Y257293D01*
X53685Y257932D01*
X55281Y261786D01*
X56255Y265842D01*
X56582Y270000D01*
X56255Y274158D01*
X55281Y278214D01*
X53685Y282068D01*
X51505Y285624D01*
X48796Y288796D01*
X45624Y291505D01*
X42068Y293685D01*
X38214Y295281D01*
X36588Y295671D01*
X36738Y296941D01*
X639262D01*
X639412Y295671D01*
D02*
G37*
G36*
X159128Y167898D02*
X159150Y167863D01*
Y144500D01*
X167000D01*
X174850D01*
Y163771D01*
X176023Y164258D01*
X177951Y162330D01*
Y109500D01*
X178145Y108525D01*
X178288Y108311D01*
X177609Y107041D01*
X174100D01*
X173281Y106878D01*
X172586Y106414D01*
X172122Y105719D01*
X171989Y105049D01*
X170012D01*
X169878Y105719D01*
X169414Y106414D01*
X168719Y106878D01*
X167900Y107041D01*
X164564D01*
X157549Y114056D01*
Y167368D01*
X158819Y168084D01*
X159128Y167898D01*
D02*
G37*
G36*
X609000Y106250D02*
Y95250D01*
X576500D01*
X576500Y105750D01*
X585500Y114750D01*
X600500D01*
X609000Y106250D01*
D02*
G37*
G36*
X204951Y103099D02*
Y49802D01*
X205145Y48827D01*
X205698Y48000D01*
X207451Y46247D01*
Y32306D01*
X205698Y30552D01*
X205145Y29725D01*
X204951Y28750D01*
Y28500D01*
X198049D01*
Y48228D01*
X197855Y49203D01*
X197302Y50030D01*
X195834Y51498D01*
X196389Y52739D01*
X197756Y53011D01*
X199244Y54006D01*
X200239Y55494D01*
X200588Y57250D01*
X200239Y59006D01*
X199244Y60494D01*
X197756Y61489D01*
X196000Y61838D01*
X195180Y61675D01*
X189799Y67056D01*
Y87959D01*
X189900D01*
X190719Y88122D01*
X191414Y88586D01*
X191878Y89281D01*
X192041Y90100D01*
Y94900D01*
X191878Y95719D01*
X191414Y96414D01*
X191000Y96691D01*
Y98309D01*
X191414Y98586D01*
X191878Y99281D01*
X192012Y99951D01*
X193988D01*
X194122Y99281D01*
X194586Y98586D01*
X195000Y98309D01*
Y96691D01*
X194586Y96414D01*
X194122Y95719D01*
X193959Y94900D01*
Y90100D01*
X194122Y89281D01*
X194586Y88586D01*
X194792Y87550D01*
X194261Y86756D01*
X193912Y85000D01*
X194261Y83244D01*
X195256Y81756D01*
X196744Y80761D01*
X198500Y80412D01*
X200256Y80761D01*
X201744Y81756D01*
X202739Y83244D01*
X203088Y85000D01*
X202739Y86756D01*
X202208Y87550D01*
X202414Y88586D01*
X202878Y89281D01*
X203041Y90100D01*
Y94900D01*
X202878Y95719D01*
X202414Y96414D01*
X202000Y96691D01*
Y98309D01*
X202414Y98586D01*
X202878Y99281D01*
X203041Y100100D01*
Y104008D01*
X203087Y104083D01*
X203685Y104178D01*
X204951Y103099D01*
D02*
G37*
G36*
X298242Y96818D02*
X298209Y96650D01*
Y91850D01*
X298372Y91031D01*
X298836Y90336D01*
X299250Y90059D01*
Y88441D01*
X298836Y88164D01*
X298372Y87470D01*
X298209Y86650D01*
Y83314D01*
X281444Y66549D01*
X269459D01*
X268994Y67244D01*
X267506Y68239D01*
X265750Y68588D01*
X263994Y68239D01*
X262506Y67244D01*
X261511Y65756D01*
X261359Y64991D01*
X259981Y64573D01*
X255650Y68905D01*
X255813Y69725D01*
X255464Y71481D01*
X255029Y72131D01*
X255708Y73401D01*
X257700D01*
X258675Y73595D01*
X259502Y74147D01*
X283443Y98088D01*
X297374D01*
X298242Y96818D01*
D02*
G37*
G36*
X651250Y48500D02*
X655250D01*
X660250Y43500D01*
Y36750D01*
X658250Y34750D01*
X649000D01*
X644500Y39250D01*
X642500D01*
X642750Y53250D01*
X646500D01*
X651250Y48500D01*
D02*
G37*
G36*
X635500Y39750D02*
Y29250D01*
X621750D01*
X621500Y29500D01*
Y31000D01*
X598250Y54250D01*
X598250Y67750D01*
X607500Y67750D01*
X635500Y39750D01*
D02*
G37*
G36*
X349198Y237198D02*
X350024Y236645D01*
X351000Y236451D01*
X432944D01*
X438815Y230580D01*
Y213350D01*
X438864Y213104D01*
Y182500D01*
X454564D01*
Y233500D01*
X443105D01*
X437577Y239028D01*
X438063Y240201D01*
X453944D01*
X464293Y229853D01*
Y182500D01*
X479993D01*
Y233500D01*
X467855D01*
X458827Y242528D01*
X459313Y243701D01*
X475694D01*
X489721Y229674D01*
Y182500D01*
X505421D01*
Y231922D01*
X508126D01*
Y184000D01*
X508602Y182852D01*
X509750Y182376D01*
X529428Y182376D01*
X529727Y182500D01*
X530850D01*
Y183512D01*
X531052Y184000D01*
Y230314D01*
X532322Y230840D01*
X534672Y228490D01*
Y156010D01*
X532023Y153361D01*
X530850Y153847D01*
Y168500D01*
X515150D01*
Y151828D01*
X505421D01*
Y168500D01*
X489721D01*
Y117500D01*
X505421D01*
Y133672D01*
X515150D01*
Y117500D01*
X530850D01*
Y133672D01*
X534250D01*
X536600Y133982D01*
X538789Y134889D01*
X540669Y136331D01*
X550169Y145831D01*
X550169Y145831D01*
X551611Y147711D01*
X552518Y149901D01*
X552828Y152250D01*
Y232250D01*
X552518Y234599D01*
X552397Y234892D01*
X553474Y235611D01*
X573061Y216024D01*
Y161976D01*
X542424Y131339D01*
X541098Y129355D01*
X540633Y127014D01*
Y39265D01*
X540626Y39250D01*
X540626Y31500D01*
X541102Y30352D01*
X541781Y29673D01*
X541295Y28500D01*
X324049D01*
Y76500D01*
X323855Y77476D01*
X323302Y78303D01*
X318291Y83314D01*
Y86650D01*
X318128Y87470D01*
X317664Y88164D01*
X317250Y88441D01*
Y90059D01*
X317664Y90336D01*
X318128Y91031D01*
X318262Y91704D01*
X319226Y91895D01*
X320052Y92448D01*
X339306Y111701D01*
X353250D01*
X354226Y111895D01*
X355052Y112448D01*
X360302Y117698D01*
X360855Y118525D01*
X361049Y119500D01*
Y177694D01*
X365855Y182500D01*
X378278D01*
Y233500D01*
X362578D01*
Y186433D01*
X356698Y180552D01*
X356145Y179725D01*
X355951Y178750D01*
Y120556D01*
X354120Y118725D01*
X352850Y119251D01*
Y168500D01*
X347549D01*
Y171750D01*
X347355Y172726D01*
X346802Y173552D01*
X341302Y179053D01*
X340475Y179605D01*
X339667Y179766D01*
X339151Y180642D01*
X339032Y180928D01*
X340605Y182500D01*
X352850D01*
Y233500D01*
X337150D01*
Y186255D01*
X334194Y183299D01*
X328708D01*
X327624Y184000D01*
Y239500D01*
X327148Y240648D01*
X326000Y241124D01*
X313250D01*
X312102Y240648D01*
X311626Y239500D01*
Y235733D01*
X310356Y235347D01*
X310052Y235802D01*
X302327Y243528D01*
X302813Y244701D01*
X341694D01*
X349198Y237198D01*
D02*
G37*
G36*
X309372Y91031D02*
X309836Y90336D01*
X310250Y90059D01*
Y88441D01*
X309836Y88164D01*
X309372Y87470D01*
X309209Y86650D01*
Y81850D01*
X309372Y81031D01*
X309836Y80336D01*
X310531Y79872D01*
X311350Y79709D01*
X314687D01*
X318951Y75444D01*
Y28500D01*
X270049D01*
Y53450D01*
X269855Y54425D01*
X269302Y55252D01*
X266324Y58231D01*
X266742Y59609D01*
X267506Y59761D01*
X268994Y60756D01*
X269459Y61451D01*
X282500D01*
X283475Y61645D01*
X284303Y62198D01*
X301814Y79709D01*
X305150D01*
X305970Y79872D01*
X306664Y80336D01*
X307128Y81031D01*
X307291Y81850D01*
Y86650D01*
X307128Y87470D01*
X306664Y88164D01*
X306250Y88441D01*
Y90059D01*
X306664Y90336D01*
X307128Y91031D01*
X307262Y91701D01*
X309239D01*
X309372Y91031D01*
D02*
G37*
G36*
X261451Y50944D02*
Y38806D01*
X259698Y37052D01*
X259145Y36226D01*
X258951Y35250D01*
Y28500D01*
X252049D01*
Y51250D01*
X251855Y52225D01*
X251302Y53052D01*
X249800Y54555D01*
X249963Y55375D01*
X249852Y55936D01*
X250000Y57162D01*
X251756Y57511D01*
X253244Y58506D01*
X253832Y58563D01*
X261451Y50944D01*
D02*
G37*
G36*
X245373Y75728D02*
X237948Y68302D01*
X237395Y67476D01*
X237201Y66500D01*
Y51250D01*
X237395Y50275D01*
X237948Y49448D01*
X243451Y43944D01*
Y32306D01*
X241698Y30552D01*
X241145Y29725D01*
X240951Y28750D01*
Y28500D01*
X234049D01*
Y57972D01*
X233855Y58947D01*
X233302Y59774D01*
X230049Y63028D01*
Y67694D01*
X239256Y76901D01*
X244887D01*
X245373Y75728D01*
D02*
G37*
G36*
X186951Y48222D02*
Y28500D01*
X180624D01*
X180624Y41000D01*
X180148Y42148D01*
X172518Y49778D01*
X173004Y50951D01*
X184222D01*
X186951Y48222D01*
D02*
G37*
G36*
X117643Y117500D02*
X122701D01*
Y111056D01*
X115698Y104052D01*
X115145Y103225D01*
X114951Y102250D01*
Y28500D01*
X108049D01*
Y116331D01*
X108293Y117500D01*
X114643D01*
Y143000D01*
X117643D01*
Y117500D01*
D02*
G37*
G36*
X109180Y243477D02*
X99698Y233995D01*
X99656Y233932D01*
X98564Y233500D01*
X97956Y233500D01*
X82864D01*
Y182500D01*
X88165D01*
Y180245D01*
X87470Y179780D01*
X86475Y178291D01*
X86126Y176536D01*
X86475Y174780D01*
X87470Y173291D01*
X88959Y172297D01*
X90714Y171948D01*
X92470Y172297D01*
X93959Y173291D01*
X94953Y174780D01*
X95302Y176536D01*
X94953Y178291D01*
X93959Y179780D01*
X93263Y180245D01*
Y182500D01*
X98564Y182500D01*
X98951Y181390D01*
Y169610D01*
X98564Y168500D01*
X97681Y168500D01*
X82864D01*
Y117500D01*
X88165D01*
Y115245D01*
X87470Y114780D01*
X86475Y113292D01*
X86126Y111536D01*
X86475Y109780D01*
X87470Y108292D01*
X88959Y107297D01*
X90714Y106948D01*
X92470Y107297D01*
X93959Y108292D01*
X94953Y109780D01*
X95302Y111536D01*
X94953Y113292D01*
X93959Y114780D01*
X93263Y115245D01*
Y117500D01*
X98564Y117500D01*
X98951Y116390D01*
Y56606D01*
X97698Y55353D01*
X97145Y54526D01*
X96951Y53550D01*
Y28500D01*
X90049D01*
Y46500D01*
X89855Y47475D01*
X89302Y48302D01*
X81049Y56556D01*
Y234244D01*
X91455Y244651D01*
X108694D01*
X109180Y243477D01*
D02*
G37*
G36*
X84951Y45444D02*
Y28500D01*
X66049D01*
Y31944D01*
X76802Y42698D01*
X77355Y43525D01*
X77549Y44500D01*
Y51187D01*
X78722Y51673D01*
X84951Y45444D01*
D02*
G37*
G36*
X72451Y45556D02*
X61698Y34802D01*
X61145Y33975D01*
X60951Y33000D01*
Y28500D01*
X54049D01*
Y80494D01*
X55802Y82248D01*
X56355Y83075D01*
X56549Y84050D01*
Y116597D01*
X57436Y117500D01*
X72451D01*
Y45556D01*
D02*
G37*
G36*
X21951Y189736D02*
Y112250D01*
X22145Y111275D01*
X22698Y110448D01*
X34951Y98194D01*
Y46755D01*
X25698Y37502D01*
X25145Y36675D01*
X24951Y35700D01*
Y28500D01*
X16375D01*
Y25750D01*
X8000D01*
Y140000D01*
X20000D01*
X20066Y188699D01*
X20182Y188873D01*
X20297Y189151D01*
X20464Y189402D01*
X20705Y189984D01*
X21951Y189736D01*
D02*
G37*
G36*
X562750Y39250D02*
X562750Y31500D01*
X557000Y25750D01*
X557000Y24000D01*
X555500Y22500D01*
X553750Y24250D01*
Y39250D01*
X562750Y39250D01*
D02*
G37*
G36*
X551250Y24250D02*
X549500Y22500D01*
X548000Y24000D01*
X548000Y25750D01*
X542250Y31500D01*
X542250Y39250D01*
X551250Y39250D01*
Y24250D01*
D02*
G37*
G36*
X179000Y41000D02*
X179000Y2500D01*
X171250Y2500D01*
Y37750D01*
X165750Y43250D01*
X150500Y43250D01*
X141750Y34500D01*
Y2500D01*
X133750Y2500D01*
X133750Y38500D01*
X145750Y50500D01*
X169500D01*
X179000Y41000D01*
D02*
G37*
%LPC*%
G36*
X38357Y206500D02*
X32007D01*
Y182500D01*
X38357D01*
Y206500D01*
D02*
G37*
G36*
X225707Y233500D02*
X219357D01*
Y209500D01*
X225707D01*
Y233500D01*
D02*
G37*
G36*
X216357D02*
X210007D01*
Y209500D01*
X216357D01*
Y233500D01*
D02*
G37*
G36*
X225707Y206500D02*
X219357D01*
Y182500D01*
X225707D01*
Y206500D01*
D02*
G37*
G36*
X216357D02*
X210007D01*
Y182500D01*
X216357D01*
Y206500D01*
D02*
G37*
G36*
X200278Y233500D02*
X184578D01*
Y182500D01*
X200278D01*
Y233500D01*
D02*
G37*
G36*
Y168500D02*
X184578D01*
Y117500D01*
X200278D01*
Y168500D01*
D02*
G37*
G36*
X443851Y267187D02*
X439636D01*
Y259500D01*
X447322D01*
Y263715D01*
X447058Y265044D01*
X446306Y266170D01*
X445179Y266922D01*
X443851Y267187D01*
D02*
G37*
G36*
X367594D02*
X363379D01*
Y259500D01*
X371065D01*
Y263715D01*
X370801Y265044D01*
X370048Y266170D01*
X368922Y266922D01*
X367594Y267187D01*
D02*
G37*
G36*
X436636D02*
X432421D01*
X431092Y266922D01*
X429966Y266170D01*
X429213Y265044D01*
X428949Y263715D01*
Y259500D01*
X436636D01*
Y267187D01*
D02*
G37*
G36*
X360379D02*
X356164D01*
X354835Y266922D01*
X353709Y266170D01*
X352956Y265044D01*
X352692Y263715D01*
Y259500D01*
X360379D01*
Y267187D01*
D02*
G37*
G36*
X174850Y141500D02*
X168500D01*
Y117500D01*
X174850D01*
Y141500D01*
D02*
G37*
G36*
X165500D02*
X159150D01*
Y117500D01*
X165500D01*
Y141500D01*
D02*
G37*
G36*
X429136Y233500D02*
X422786D01*
Y209500D01*
X429136D01*
Y233500D01*
D02*
G37*
G36*
X419786D02*
X413436D01*
Y209500D01*
X419786D01*
Y233500D01*
D02*
G37*
G36*
X403707D02*
X388007D01*
Y186112D01*
X386862Y184967D01*
X386250Y185088D01*
X384494Y184739D01*
X383006Y183744D01*
X382011Y182256D01*
X381662Y180500D01*
X382011Y178744D01*
X383006Y177256D01*
X384494Y176261D01*
X385065Y176147D01*
Y174853D01*
X384494Y174739D01*
X383006Y173744D01*
X382011Y172256D01*
X381662Y170500D01*
X382011Y168744D01*
X383006Y167256D01*
X384494Y166261D01*
X386250Y165912D01*
X386862Y166034D01*
X388007Y164888D01*
Y117500D01*
X403707D01*
Y168500D01*
X391605D01*
X390634Y169471D01*
X390838Y170500D01*
X390489Y172256D01*
X389494Y173744D01*
X388006Y174739D01*
X387435Y174853D01*
Y176147D01*
X388006Y176261D01*
X389494Y177256D01*
X390489Y178744D01*
X390838Y180500D01*
X390634Y181529D01*
X391605Y182500D01*
X403707D01*
Y233500D01*
D02*
G37*
G36*
X429136Y206500D02*
X422786D01*
Y182500D01*
X429136D01*
Y206500D01*
D02*
G37*
G36*
X419786D02*
X413436D01*
Y182500D01*
X419786D01*
Y206500D01*
D02*
G37*
G36*
X378278Y168500D02*
X371928D01*
Y144500D01*
X378278D01*
Y168500D01*
D02*
G37*
G36*
X479993D02*
X473643D01*
Y144500D01*
X479993D01*
Y168500D01*
D02*
G37*
G36*
X368928D02*
X362578D01*
Y144500D01*
X368928D01*
Y168500D01*
D02*
G37*
G36*
X470643D02*
X464293D01*
Y144500D01*
X470643D01*
Y168500D01*
D02*
G37*
G36*
X479993Y141500D02*
X473643D01*
Y117500D01*
X479993D01*
Y141500D01*
D02*
G37*
G36*
X470643D02*
X464293D01*
Y117500D01*
X470643D01*
Y141500D01*
D02*
G37*
G36*
X437107Y175088D02*
X435351Y174739D01*
X433863Y173744D01*
X432868Y172256D01*
X432519Y170500D01*
X432868Y168744D01*
X433863Y167256D01*
X435351Y166261D01*
X437107Y165912D01*
X437719Y166034D01*
X438864Y164888D01*
Y117500D01*
X454564D01*
Y168500D01*
X442462D01*
X441491Y169471D01*
X441695Y170500D01*
X441346Y172256D01*
X440351Y173744D01*
X438863Y174739D01*
X437107Y175088D01*
D02*
G37*
G36*
X411679D02*
X409923Y174739D01*
X408434Y173744D01*
X407440Y172256D01*
X407090Y170500D01*
X407440Y168744D01*
X408434Y167256D01*
X409923Y166261D01*
X411679Y165912D01*
X412290Y166034D01*
X413436Y164888D01*
Y117500D01*
X429136D01*
Y168500D01*
X417033D01*
X416062Y169471D01*
X416267Y170500D01*
X415918Y172256D01*
X414923Y173744D01*
X413434Y174739D01*
X411679Y175088D01*
D02*
G37*
G36*
X378278Y141500D02*
X371928D01*
Y117500D01*
X378278D01*
Y141500D01*
D02*
G37*
G36*
X368928D02*
X362578D01*
Y117500D01*
X368928D01*
Y141500D01*
D02*
G37*
G36*
X20000Y70591D02*
X17259Y70230D01*
X14705Y69172D01*
X12511Y67489D01*
X10828Y65295D01*
X9770Y62741D01*
X9409Y60000D01*
X9770Y57259D01*
X10828Y54705D01*
X12511Y52511D01*
X14705Y50828D01*
X17259Y49770D01*
X20000Y49409D01*
X22741Y49770D01*
X25295Y50828D01*
X27489Y52511D01*
X29172Y54705D01*
X30230Y57259D01*
X30591Y60000D01*
X30230Y62741D01*
X29172Y65295D01*
X27489Y67489D01*
X25295Y69172D01*
X22741Y70230D01*
X20000Y70591D01*
D02*
G37*
%LPD*%
D14*
X353250Y114250D02*
X358500Y119500D01*
X338250Y114250D02*
X353250D01*
X318250Y94250D02*
X338250Y114250D01*
X313750Y94250D02*
X318250D01*
X322350Y106600D02*
X333863Y118113D01*
X315350Y106600D02*
X322350D01*
X320900Y110099D02*
X329250Y118450D01*
X313900Y110099D02*
X320900D01*
X329250Y118450D02*
Y168750D01*
X308050Y104250D02*
X313900Y110099D01*
X281050Y104250D02*
X308050D01*
X309387Y100637D02*
X315350Y106600D01*
X282387Y100637D02*
X309387D01*
X333863Y118113D02*
Y168613D01*
X148000Y110750D02*
X151500Y114250D01*
X148000Y61222D02*
Y110750D01*
Y61222D02*
X152222Y57000D01*
X202000Y14500D02*
Y62528D01*
X358500Y119500D02*
Y178750D01*
X351000Y239000D02*
X434000D01*
X342750Y247250D02*
X351000Y239000D01*
X300066Y247250D02*
X342750D01*
X346500Y253950D02*
Y267750D01*
Y253950D02*
X354200Y246250D01*
X476750D01*
X352750Y242750D02*
X455000D01*
X331750Y263750D02*
X352750Y242750D01*
X334625Y274625D02*
X339625D01*
X346500Y267750D01*
X323500Y285750D02*
X334625Y274625D01*
X323750Y263750D02*
X334625Y274625D01*
X313750Y285750D02*
X323500D01*
X313750Y263750D02*
X323750D01*
X313750Y274750D02*
X320750D01*
X313750Y252750D02*
X320750D01*
X154750Y62500D02*
X165500Y73250D01*
X152222Y57000D02*
X186728D01*
X150772Y53500D02*
X185278D01*
X141571Y62701D02*
X150772Y53500D01*
X165500Y73250D02*
Y92500D01*
X141571Y62701D02*
Y143000D01*
X151500Y114250D02*
Y166957D01*
X185278Y53500D02*
X189500Y49278D01*
X186728Y57000D02*
X195500Y48228D01*
X90399Y247200D02*
X111334D01*
X115884Y251750D02*
X290500D01*
X111334Y247200D02*
X115884Y251750D01*
X114434Y255250D02*
X292066D01*
X109884Y250700D02*
X114434Y255250D01*
X88950Y250700D02*
X109884D01*
X137397Y237750D02*
X230750D01*
X128750Y229103D02*
X137397Y237750D01*
X128750Y128500D02*
Y229103D01*
X135948Y241250D02*
X246000D01*
X125250Y230552D02*
X135948Y241250D01*
X125250Y110000D02*
Y230552D01*
X117558Y248250D02*
X289050D01*
X101500Y55550D02*
Y232192D01*
X119007Y244750D02*
X250000D01*
X105500Y231243D02*
X119007Y244750D01*
X105500Y14000D02*
Y231243D01*
X101500Y232192D02*
X117558Y248250D01*
X246000Y241250D02*
X257250Y230000D01*
Y184500D02*
Y230000D01*
Y184500D02*
X261500Y180250D01*
X213500Y14000D02*
Y48752D01*
X211000Y51252D02*
Y105750D01*
Y51252D02*
X213500Y48752D01*
X210000Y31250D02*
Y47302D01*
X207500Y49802D02*
X210000Y47302D01*
X207500Y49802D02*
Y106000D01*
X249200Y75950D02*
X257700D01*
X239750Y66500D02*
X249200Y75950D01*
X239750Y51250D02*
Y66500D01*
X217000Y53500D02*
X218250Y52250D01*
X172850Y171036D02*
X180500Y163386D01*
Y109500D02*
Y163386D01*
Y109500D02*
X187500Y102500D01*
X211000Y105750D02*
X215000Y109750D01*
X203750D02*
X207500Y106000D01*
X231500Y14000D02*
Y57972D01*
X217000Y79778D02*
X232222Y95000D01*
X217000Y53500D02*
Y79778D01*
X227500Y61972D02*
Y68750D01*
Y61972D02*
X231500Y57972D01*
X318450Y177250D02*
X339500D01*
X308750Y118500D02*
Y167550D01*
X318450Y177250D01*
X317000Y180750D02*
X335250D01*
X305250Y169000D02*
X317000Y180750D01*
X305250Y120222D02*
Y169000D01*
X333863Y168613D02*
X336250Y171000D01*
X326500Y171500D02*
X329250Y168750D01*
X335250Y180750D02*
X339500Y185000D01*
X339500Y177250D02*
X345000Y171750D01*
Y143000D02*
Y171750D01*
X437107Y170250D02*
Y170500D01*
Y170250D02*
X446714Y160643D01*
Y143000D02*
Y160643D01*
X411679Y170250D02*
Y170500D01*
Y170250D02*
X421286Y160643D01*
Y143000D02*
Y160643D01*
X395857Y143000D02*
Y160643D01*
X386250Y170250D02*
X395857Y160643D01*
X386250Y170250D02*
Y170500D01*
Y180500D02*
Y180750D01*
X395857Y190357D01*
Y208000D01*
X232222Y95000D02*
X256500D01*
X233671Y91500D02*
X257950D01*
X220500Y78328D02*
X233671Y91500D01*
X220500Y58500D02*
Y78328D01*
X257950Y91500D02*
X278450Y112000D01*
X256500Y95000D02*
X277000Y115500D01*
X220500Y58500D02*
X223750Y55250D01*
X224000Y74050D02*
X231250Y81300D01*
X224000Y59950D02*
Y74050D01*
Y59950D02*
X228000Y55950D01*
X227500Y68750D02*
X238200Y79450D01*
X228000Y28972D02*
Y55950D01*
X223750Y47000D02*
Y55250D01*
X225500Y26472D02*
X228000Y28972D01*
X292066Y255250D02*
X300066Y247250D01*
X153500Y177750D02*
Y232250D01*
X141957Y176500D02*
X151500Y166957D01*
X134750Y176500D02*
X141957D01*
X65286Y208000D02*
Y237000D01*
X160214Y171036D02*
X172850D01*
X153500Y177750D02*
X160214Y171036D01*
X167000Y176536D02*
Y208000D01*
X141571Y182179D02*
Y208000D01*
Y182179D02*
X155000Y168750D01*
Y113000D02*
Y168750D01*
X116143Y176536D02*
Y208000D01*
X39857Y143000D02*
Y174464D01*
X292500Y264000D02*
X303750Y252750D01*
X300000Y267500D02*
X303750Y263750D01*
X300000Y271000D02*
X303750Y274750D01*
X292500Y274500D02*
X303750Y285750D01*
X187250Y66000D02*
X196000Y57250D01*
X187250Y66000D02*
Y92250D01*
X201500Y14000D02*
X202000Y14500D01*
X250000Y61750D02*
X254250D01*
X264000Y52000D01*
Y37750D02*
Y52000D01*
X261500Y35250D02*
X264000Y37750D01*
X251225Y69725D02*
X267500Y53450D01*
Y14000D02*
Y53450D01*
X239750Y51250D02*
X246000Y45000D01*
X245375Y55375D02*
X249500Y51250D01*
Y14000D02*
Y51250D01*
X257700Y75950D02*
X282387Y100637D01*
X246000Y31250D02*
Y45000D01*
X256250Y79450D02*
X281050Y104250D01*
X238200Y79450D02*
X256250D01*
X282500Y64000D02*
X302750Y84250D01*
X265750Y64000D02*
X282500D01*
X245500Y85500D02*
X257250D01*
X280250Y108500D01*
X313750Y84250D02*
X321500Y76500D01*
X476750Y246250D02*
X492000Y231000D01*
X492221D01*
X497571Y225650D01*
Y208000D02*
Y225650D01*
X472143Y208000D02*
Y225607D01*
X455000Y242750D02*
X472143Y225607D01*
X187250Y92250D02*
X187500Y92500D01*
X268714Y116536D02*
Y143000D01*
X263714Y111536D02*
X268714Y116536D01*
X253750Y118101D02*
Y165250D01*
X250650Y115000D02*
X253750Y118101D01*
X176500Y85000D02*
Y92500D01*
X195500Y14000D02*
Y48228D01*
X189500Y14000D02*
Y49278D01*
X280250Y108500D02*
X303700D01*
X314221Y119022D01*
Y137650D01*
X319571Y143000D01*
X300528Y115500D02*
X305250Y120222D01*
X277000Y115500D02*
X300528D01*
X302250Y112000D02*
X308750Y118500D01*
X278450Y112000D02*
X302250D01*
X243286Y143000D02*
Y160536D01*
X258250Y175500D01*
X219500Y42750D02*
X223750Y47000D01*
X223207Y120000D02*
X223250D01*
X217857Y125350D02*
X223207Y120000D01*
X217857Y125350D02*
Y143000D01*
X223250Y120000D02*
X228250Y115000D01*
X250650D01*
X253750Y165250D02*
X260500Y172000D01*
X298200D01*
X339500Y185000D02*
X339650D01*
X345000Y190350D01*
Y208000D01*
X302750Y94250D02*
X313750D01*
X358500Y178750D02*
X364750Y185000D01*
X365078D01*
X370428Y190350D01*
Y208000D01*
X187500Y102500D02*
X198500D01*
X155000Y113000D02*
X165500Y102500D01*
X176500D01*
X66651Y265250D02*
X96501D01*
X68101Y261750D02*
X97951D01*
X69550Y258250D02*
X99401D01*
X50500Y85500D02*
Y239200D01*
X43101Y236750D02*
X68101Y261750D01*
X34500Y236750D02*
X43101D01*
X41651Y240250D02*
X66651Y265250D01*
X33050Y240250D02*
X41651D01*
X50500Y239200D02*
X69550Y258250D01*
X71000Y254750D02*
X100851D01*
X54000Y237750D02*
X71000Y254750D01*
X54000Y84050D02*
Y237750D01*
X90714Y176536D02*
Y208000D01*
X116143Y111536D02*
Y143000D01*
X90714Y111536D02*
Y143000D01*
X65286D02*
Y174464D01*
X258250Y175500D02*
X296750D01*
X298200Y172000D02*
X308250Y182050D01*
X296750Y175500D02*
X304750Y183500D01*
X261500Y180250D02*
X284250D01*
X294143Y190143D01*
Y208000D01*
X110101Y264000D02*
X292500D01*
X108651Y267500D02*
X300000D01*
X107201Y271000D02*
X300000D01*
X105751Y274500D02*
X292500D01*
X230750Y237750D02*
X243286Y225214D01*
X250000Y244750D02*
X268714Y226036D01*
X304750Y183500D02*
Y232550D01*
X289050Y248250D02*
X304750Y232550D01*
X290500Y251750D02*
X308250Y234000D01*
X268714Y208000D02*
Y226036D01*
X243286Y208000D02*
Y225214D01*
X128750Y128500D02*
X128750Y128500D01*
X128750Y108550D02*
Y128500D01*
X123500Y103300D02*
X128750Y108550D01*
X117500Y102250D02*
X125250Y110000D01*
X99500Y53550D02*
X101500Y55550D01*
X78500Y235300D02*
X90399Y247200D01*
X78500Y55500D02*
Y235300D01*
Y55500D02*
X87500Y46500D01*
X75000Y236750D02*
X88950Y250700D01*
X75000Y44500D02*
Y236750D01*
X63500Y33000D02*
X75000Y44500D01*
X28000Y230250D02*
X34500Y236750D01*
X24500Y231700D02*
X33050Y240250D01*
X24500Y112250D02*
Y231700D01*
X28000Y113700D02*
Y230250D01*
Y113700D02*
X41000Y100700D01*
X24500Y112250D02*
X37500Y99250D01*
X308250Y182050D02*
Y234000D01*
X441364Y213350D02*
Y231636D01*
Y213350D02*
X446714Y208000D01*
X434000Y239000D02*
X441364Y231636D01*
X51500Y81550D02*
X54000Y84050D01*
X48000Y83000D02*
X50500Y85500D01*
X99401Y258250D02*
X108651Y267500D01*
X100851Y254750D02*
X110101Y264000D01*
X97951Y261750D02*
X107201Y271000D01*
X96501Y265250D02*
X105751Y274500D01*
X198500Y85000D02*
Y92500D01*
X183500Y14000D02*
Y47500D01*
X183000Y48000D02*
X183500Y47500D01*
X225500Y14000D02*
Y26472D01*
X243500Y14000D02*
Y28750D01*
X246000Y31250D01*
X237500Y14000D02*
Y27700D01*
X240250Y30450D01*
Y41755D01*
X93500Y14000D02*
Y31750D01*
X93500Y31750D02*
X93500Y31750D01*
X111500Y14000D02*
Y31750D01*
X321500Y14000D02*
Y76500D01*
X561500Y14000D02*
Y26500D01*
X567464Y32464D01*
X573500D01*
X531500Y32464D02*
X537536D01*
X543500Y26500D01*
Y14000D02*
Y26500D01*
X261500Y14000D02*
Y35250D01*
X207500Y28750D02*
X210000Y31250D01*
X207500Y14000D02*
Y28750D01*
X63500Y14000D02*
Y33000D01*
X51500Y14000D02*
Y81550D01*
X45500Y14000D02*
Y29500D01*
X48000Y32000D01*
Y83000D01*
X87500Y14000D02*
Y46500D01*
X99500Y14000D02*
Y53550D01*
X117500Y14000D02*
Y102250D01*
X123500Y14000D02*
Y103300D01*
X27500Y14000D02*
Y35700D01*
X33500Y14000D02*
Y36750D01*
X27500Y35700D02*
X37500Y45700D01*
Y99250D01*
X33500Y36750D02*
X41000Y44250D01*
Y100700D01*
D16*
X165500Y102500D02*
D03*
Y92500D02*
D03*
X176500Y102500D02*
D03*
Y92500D02*
D03*
X198500Y102500D02*
D03*
Y92500D02*
D03*
X187500Y102500D02*
D03*
Y92500D02*
D03*
X302750Y94250D02*
D03*
Y84250D02*
D03*
X313750Y94250D02*
D03*
Y84250D02*
D03*
D17*
X345000Y143000D02*
D03*
Y208000D02*
D03*
X370428Y143000D02*
D03*
Y208000D02*
D03*
X395857Y143000D02*
D03*
Y208000D02*
D03*
X421286Y143000D02*
D03*
Y208000D02*
D03*
X446714Y143000D02*
D03*
Y208000D02*
D03*
X472143Y143000D02*
D03*
Y208000D02*
D03*
X497571Y143000D02*
D03*
Y208000D02*
D03*
X523000Y143000D02*
D03*
Y208000D02*
D03*
X319571D02*
D03*
Y143000D02*
D03*
X294143Y208000D02*
D03*
Y143000D02*
D03*
X268714Y208000D02*
D03*
Y143000D02*
D03*
X192428D02*
D03*
Y208000D02*
D03*
X217857Y143000D02*
D03*
Y208000D02*
D03*
X243286Y143000D02*
D03*
Y208000D02*
D03*
X116143Y143000D02*
D03*
Y208000D02*
D03*
X141571Y143000D02*
D03*
Y208000D02*
D03*
X167000Y143000D02*
D03*
Y208000D02*
D03*
X39857Y143000D02*
D03*
Y208000D02*
D03*
X65286Y143000D02*
D03*
Y208000D02*
D03*
X90714Y143000D02*
D03*
Y208000D02*
D03*
D18*
X618750Y79250D02*
D03*
Y99250D02*
D03*
X584000Y79250D02*
D03*
Y99250D02*
D03*
X601500Y79250D02*
D03*
Y99250D02*
D03*
D19*
X313750Y252750D02*
D03*
X303750D02*
D03*
X313750Y274750D02*
D03*
X303750D02*
D03*
X313750Y263750D02*
D03*
X303750D02*
D03*
X313750Y285750D02*
D03*
X303750D02*
D03*
D30*
X463536Y258000D02*
D03*
X387279D02*
D03*
X590678D02*
D03*
X539821D02*
D03*
X565250D02*
D03*
X642500Y96800D02*
D03*
D32*
X-80000Y380000D02*
D03*
X756000Y380000D02*
D03*
Y-80000D02*
D03*
X-80000Y-80000D02*
D03*
D33*
X21500Y14000D02*
D03*
X27500D02*
D03*
X33500D02*
D03*
X39500D02*
D03*
X45500D02*
D03*
X51500D02*
D03*
X57500D02*
D03*
X63500D02*
D03*
X69500D02*
D03*
X75500D02*
D03*
X81500D02*
D03*
X87500D02*
D03*
X93500D02*
D03*
X99500D02*
D03*
X105500D02*
D03*
X111500D02*
D03*
X117500D02*
D03*
X123500D02*
D03*
X129500D02*
D03*
X135500D02*
D03*
X177500D02*
D03*
X183500D02*
D03*
X189500D02*
D03*
X195500D02*
D03*
X201500D02*
D03*
X207500D02*
D03*
X213500D02*
D03*
X219500D02*
D03*
X225500D02*
D03*
X231500D02*
D03*
X237500D02*
D03*
X243500D02*
D03*
X249500D02*
D03*
X255500D02*
D03*
X261500D02*
D03*
X267500D02*
D03*
X273500D02*
D03*
X279500D02*
D03*
X285500D02*
D03*
X291500D02*
D03*
X297500D02*
D03*
X303500D02*
D03*
X309500D02*
D03*
X315500D02*
D03*
X321500D02*
D03*
X327500D02*
D03*
X333500D02*
D03*
X339500D02*
D03*
X345500D02*
D03*
X351500D02*
D03*
X357500D02*
D03*
X363500D02*
D03*
X369500D02*
D03*
X375500D02*
D03*
X381500D02*
D03*
X387500D02*
D03*
X393500D02*
D03*
X399500D02*
D03*
X405500D02*
D03*
X411500D02*
D03*
X417500D02*
D03*
X423500D02*
D03*
X429500D02*
D03*
X435500D02*
D03*
X441500D02*
D03*
X447500D02*
D03*
X453500D02*
D03*
X459500D02*
D03*
X465500D02*
D03*
X471500D02*
D03*
X477500D02*
D03*
X483500D02*
D03*
X489500D02*
D03*
X495500D02*
D03*
X501500D02*
D03*
X507500D02*
D03*
X513500D02*
D03*
X519500D02*
D03*
X525500D02*
D03*
X531500D02*
D03*
X537500D02*
D03*
X543500D02*
D03*
X549500D02*
D03*
X555500D02*
D03*
X561500D02*
D03*
X567500D02*
D03*
X573500D02*
D03*
X579500D02*
D03*
X585500D02*
D03*
X591500D02*
D03*
X597500D02*
D03*
X603500D02*
D03*
X609500D02*
D03*
X615500D02*
D03*
X621500D02*
D03*
X627500D02*
D03*
X633500D02*
D03*
X639500D02*
D03*
X645500D02*
D03*
X651500D02*
D03*
D34*
X500250Y142750D02*
X534250D01*
X543750Y152250D02*
Y232250D01*
X535000Y241000D02*
X543750Y232250D01*
X502750Y241000D02*
X535000D01*
X534250Y142750D02*
X543750Y152250D01*
X493250Y250500D02*
X502750Y241000D01*
X590678Y258000D02*
X632750Y215928D01*
X632500Y56750D02*
X642500Y46750D01*
X584000Y69500D02*
Y79250D01*
Y69500D02*
X593250Y60250D01*
X603750D01*
X620750Y43250D01*
X463536Y258000D02*
X471786Y266250D01*
X571179Y277500D02*
X590678Y258000D01*
X493250Y250500D02*
Y266250D01*
X471786D02*
X493250D01*
X504500Y277500D02*
X571179D01*
X493250Y266250D02*
X504500Y277500D01*
X618750Y99250D02*
Y111750D01*
X629200Y122200D01*
X642500D01*
X632750Y159750D02*
Y215928D01*
Y159750D02*
X642500Y150000D01*
Y122200D02*
Y150000D01*
X624950Y79250D02*
X642500Y96800D01*
X601500Y79250D02*
X624950D01*
X623750D02*
X632500Y70500D01*
Y56750D02*
Y70500D01*
D35*
X93500Y31750D02*
Y32616D01*
X597500Y14000D02*
Y32616D01*
X525500Y14000D02*
Y32616D01*
X507500Y14000D02*
Y32616D01*
X489500Y14000D02*
Y32616D01*
X471500Y14000D02*
Y32616D01*
X453500Y14000D02*
Y32616D01*
X435500Y14000D02*
Y32616D01*
X417500Y14000D02*
Y32616D01*
X399500Y14000D02*
Y32616D01*
X381500Y14000D02*
Y32616D01*
X363500Y14000D02*
Y32616D01*
X345500Y14000D02*
Y32616D01*
X327500Y14000D02*
Y32616D01*
X309500Y14000D02*
Y32616D01*
X291500Y14000D02*
Y32616D01*
X273500Y14000D02*
Y32616D01*
X255500Y14000D02*
Y32616D01*
X219500Y14000D02*
Y32616D01*
X201500Y14000D02*
Y32616D01*
X183500Y14000D02*
Y32616D01*
X129500Y14000D02*
Y32616D01*
X57500Y14000D02*
Y32616D01*
X75500Y14000D02*
Y32616D01*
X39500Y14000D02*
Y32616D01*
X606972Y31500D02*
X609500Y28972D01*
X603500Y31500D02*
X606972D01*
X609500Y14000D02*
Y28972D01*
X605500Y40750D02*
X615500Y30750D01*
X603500Y14000D02*
Y31500D01*
X603000Y40750D02*
X605500D01*
X645500Y14000D02*
Y27000D01*
X648500Y30000D01*
Y43500D01*
X651500Y14000D02*
Y25500D01*
X655250Y29250D01*
Y38000D01*
X621500Y14000D02*
Y32750D01*
X639500Y14000D02*
Y32250D01*
X642000Y34750D01*
X615500Y14000D02*
Y30750D01*
X633500Y14000D02*
Y32750D01*
X627500Y14000D02*
Y33250D01*
X555500Y14000D02*
Y29500D01*
X549500Y14000D02*
Y29500D01*
X21500Y32306D02*
X22023D01*
X21500Y14000D02*
Y32306D01*
D36*
X546750Y37000D02*
Y127014D01*
X558250Y37000D02*
Y122250D01*
X590678Y154678D01*
X546750Y127014D02*
X579179Y159442D01*
X565250Y248750D02*
Y258000D01*
Y248750D02*
X590678Y223321D01*
Y154678D02*
Y223321D01*
X539821Y258000D02*
X553750Y244071D01*
Y243987D02*
Y244071D01*
Y243987D02*
X579179Y218558D01*
Y159442D02*
Y218558D01*
D37*
X30000Y270000D02*
D03*
X646000D02*
D03*
D38*
X438136Y258000D02*
D03*
X361879D02*
D03*
D39*
X514393D02*
D03*
D40*
X676250Y159500D02*
D03*
Y123750D02*
D03*
Y135500D02*
D03*
Y147500D02*
D03*
X0Y159500D02*
D03*
Y123750D02*
D03*
Y135500D02*
D03*
Y147500D02*
D03*
D41*
X656000Y60000D02*
D03*
X20000D02*
D03*
D42*
X642500Y122200D02*
D03*
D43*
X331750Y263750D02*
D03*
X320750Y274750D02*
D03*
Y252750D02*
D03*
X154750Y62500D02*
D03*
X174000Y113000D02*
D03*
X204500Y210250D02*
D03*
X281250Y141750D02*
D03*
X434000Y207250D02*
D03*
X562500Y190250D02*
D03*
X472250Y96500D02*
D03*
X215000Y109750D02*
D03*
X203750D02*
D03*
X336613Y171363D02*
D03*
X326500Y171500D02*
D03*
X437107Y170500D02*
D03*
X411679D02*
D03*
X386250D02*
D03*
Y180500D02*
D03*
X512750Y204750D02*
D03*
Y211500D02*
D03*
X323000Y236250D02*
D03*
X316250D02*
D03*
X153500Y232250D02*
D03*
X65286Y237000D02*
D03*
X167000Y176536D02*
D03*
X134750Y176500D02*
D03*
X116143Y176536D02*
D03*
X39857Y174464D02*
D03*
X294500Y88000D02*
D03*
X202000Y62528D02*
D03*
X196000Y57250D02*
D03*
X251225Y69725D02*
D03*
X250000Y61750D02*
D03*
X245375Y55375D02*
D03*
X245500Y85500D02*
D03*
X265750Y64000D02*
D03*
X222250Y33500D02*
D03*
X263714Y111536D02*
D03*
X176500Y85000D02*
D03*
X219500Y42750D02*
D03*
X90714Y176536D02*
D03*
X116143Y111536D02*
D03*
X90714D02*
D03*
X65286Y174464D02*
D03*
X198500Y85000D02*
D03*
X605500Y31500D02*
D03*
X603000Y40750D02*
D03*
X89250Y271250D02*
D03*
X222250Y291250D02*
D03*
X183000Y48000D02*
D03*
X131000Y46250D02*
D03*
X240250Y41755D02*
D03*
X360000Y84000D02*
D03*
X93500Y31750D02*
D03*
X111500D02*
D03*
X231250Y81300D02*
D03*
X275250Y71250D02*
D03*
X648500Y43500D02*
D03*
X655250Y38000D02*
D03*
X642000Y34750D02*
D03*
X630500Y40250D02*
D03*
X630500Y32250D02*
D03*
X573500Y32464D02*
D03*
X531500Y32464D02*
D03*
X274250Y33750D02*
D03*
X258000Y40750D02*
D03*
X648500Y163750D02*
D03*
X588500Y111750D02*
D03*
X597500Y111750D02*
D03*
X204250Y37500D02*
D03*
X25250Y44250D02*
D03*
X76000Y37052D02*
D03*
X422750Y36750D02*
D03*
X233000Y64250D02*
D03*
X218250Y52250D02*
D03*
X57250Y41500D02*
D03*
X304000Y33750D02*
D03*
X40500Y35000D02*
D03*
M02*
