G04*
G04 #@! TF.GenerationSoftware,Altium Limited,Altium Designer,19.0.12 (326)*
G04*
G04 Layer_Color=8388736*
%FSLAX44Y44*%
%MOMM*%
G71*
G01*
G75*
G04:AMPARAMS|DCode=20|XSize=0.7mm|YSize=0.7mm|CornerRadius=0.11mm|HoleSize=0mm|Usage=FLASHONLY|Rotation=0.000|XOffset=0mm|YOffset=0mm|HoleType=Round|Shape=RoundedRectangle|*
%AMROUNDEDRECTD20*
21,1,0.7000,0.4800,0,0,0.0*
21,1,0.4800,0.7000,0,0,0.0*
1,1,0.2200,0.2400,-0.2400*
1,1,0.2200,-0.2400,-0.2400*
1,1,0.2200,-0.2400,0.2400*
1,1,0.2200,0.2400,0.2400*
%
%ADD20ROUNDEDRECTD20*%
%ADD21R,1.3700X4.9000*%
%ADD22C,3.0000*%
G04:AMPARAMS|DCode=23|XSize=1.4mm|YSize=0.9mm|CornerRadius=0.15mm|HoleSize=0mm|Usage=FLASHONLY|Rotation=180.000|XOffset=0mm|YOffset=0mm|HoleType=Round|Shape=RoundedRectangle|*
%AMROUNDEDRECTD23*
21,1,1.4000,0.6000,0,0,180.0*
21,1,1.1000,0.9000,0,0,180.0*
1,1,0.3000,-0.5500,0.3000*
1,1,0.3000,0.5500,0.3000*
1,1,0.3000,0.5500,-0.3000*
1,1,0.3000,-0.5500,-0.3000*
%
%ADD23ROUNDEDRECTD23*%
%ADD24R,1.0500X2.9000*%
G04:AMPARAMS|DCode=25|XSize=0.7mm|YSize=0.7mm|CornerRadius=0.11mm|HoleSize=0mm|Usage=FLASHONLY|Rotation=90.000|XOffset=0mm|YOffset=0mm|HoleType=Round|Shape=RoundedRectangle|*
%AMROUNDEDRECTD25*
21,1,0.7000,0.4800,0,0,90.0*
21,1,0.4800,0.7000,0,0,90.0*
1,1,0.2200,0.2400,0.2400*
1,1,0.2200,0.2400,-0.2400*
1,1,0.2200,-0.2400,-0.2400*
1,1,0.2200,-0.2400,0.2400*
%
%ADD25ROUNDEDRECTD25*%
%ADD26C,5.1000*%
%ADD27C,1.7000*%
G04:AMPARAMS|DCode=28|XSize=1.624mm|YSize=1.624mm|CornerRadius=0.2405mm|HoleSize=0mm|Usage=FLASHONLY|Rotation=90.000|XOffset=0mm|YOffset=0mm|HoleType=Round|Shape=RoundedRectangle|*
%AMROUNDEDRECTD28*
21,1,1.6240,1.1430,0,0,90.0*
21,1,1.1430,1.6240,0,0,90.0*
1,1,0.4810,0.5715,0.5715*
1,1,0.4810,0.5715,-0.5715*
1,1,0.4810,-0.5715,-0.5715*
1,1,0.4810,-0.5715,0.5715*
%
%ADD28ROUNDEDRECTD28*%
G04:AMPARAMS|DCode=29|XSize=1.7mm|YSize=1.7mm|CornerRadius=0.45mm|HoleSize=0mm|Usage=FLASHONLY|Rotation=0.000|XOffset=0mm|YOffset=0mm|HoleType=Round|Shape=RoundedRectangle|*
%AMROUNDEDRECTD29*
21,1,1.7000,0.8000,0,0,0.0*
21,1,0.8000,1.7000,0,0,0.0*
1,1,0.9000,0.4000,-0.4000*
1,1,0.9000,-0.4000,-0.4000*
1,1,0.9000,-0.4000,0.4000*
1,1,0.9000,0.4000,0.4000*
%
%ADD29ROUNDEDRECTD29*%
%ADD30C,1.6000*%
G04:AMPARAMS|DCode=31|XSize=1.624mm|YSize=1.624mm|CornerRadius=0.2405mm|HoleSize=0mm|Usage=FLASHONLY|Rotation=0.000|XOffset=0mm|YOffset=0mm|HoleType=Round|Shape=RoundedRectangle|*
%AMROUNDEDRECTD31*
21,1,1.6240,1.1430,0,0,0.0*
21,1,1.1430,1.6240,0,0,0.0*
1,1,0.4810,0.5715,-0.5715*
1,1,0.4810,-0.5715,-0.5715*
1,1,0.4810,-0.5715,0.5715*
1,1,0.4810,0.5715,0.5715*
%
%ADD31ROUNDEDRECTD31*%
G36*
X299350Y496750D02*
X300100Y496000D01*
X299350Y496000D01*
X299350Y496750D01*
D02*
G37*
G36*
X328750Y496750D02*
X328000Y496000D01*
X328750Y496000D01*
X328750Y496750D01*
D02*
G37*
G36*
X299350Y524750D02*
X300100Y525500D01*
X299350Y525500D01*
X299350Y524750D01*
D02*
G37*
G36*
X328750Y524750D02*
X328000Y525500D01*
X328750Y525500D01*
X328750Y524750D01*
D02*
G37*
G36*
X299300Y623500D02*
X300050Y622750D01*
X299300Y622750D01*
X299300Y623500D01*
D02*
G37*
G36*
X328700Y623500D02*
X327950Y622750D01*
X328700Y622750D01*
X328700Y623500D01*
D02*
G37*
G36*
X299300Y651500D02*
X300050Y652250D01*
X299300Y652250D01*
X299300Y651500D01*
D02*
G37*
G36*
X328700Y651500D02*
X327950Y652250D01*
X328700Y652250D01*
X328700Y651500D01*
D02*
G37*
D20*
X165500Y102500D02*
D03*
Y92500D02*
D03*
X176500Y102500D02*
D03*
Y92500D02*
D03*
X198500Y102500D02*
D03*
Y92500D02*
D03*
X187500Y102500D02*
D03*
Y92500D02*
D03*
X302750Y94250D02*
D03*
Y84250D02*
D03*
X313750Y94250D02*
D03*
Y84250D02*
D03*
D21*
X345000Y143000D02*
D03*
Y208000D02*
D03*
X370428Y143000D02*
D03*
Y208000D02*
D03*
X395857Y143000D02*
D03*
Y208000D02*
D03*
X421286Y143000D02*
D03*
Y208000D02*
D03*
X446714Y143000D02*
D03*
Y208000D02*
D03*
X472143Y143000D02*
D03*
Y208000D02*
D03*
X497571Y143000D02*
D03*
Y208000D02*
D03*
X523000Y143000D02*
D03*
Y208000D02*
D03*
X319571D02*
D03*
Y143000D02*
D03*
X294143Y208000D02*
D03*
Y143000D02*
D03*
X268714Y208000D02*
D03*
Y143000D02*
D03*
X192428D02*
D03*
Y208000D02*
D03*
X217857Y143000D02*
D03*
Y208000D02*
D03*
X243286Y143000D02*
D03*
Y208000D02*
D03*
X116143Y143000D02*
D03*
Y208000D02*
D03*
X141571Y143000D02*
D03*
Y208000D02*
D03*
X167000Y143000D02*
D03*
Y208000D02*
D03*
X39857Y143000D02*
D03*
Y208000D02*
D03*
X65286Y143000D02*
D03*
Y208000D02*
D03*
X90714Y143000D02*
D03*
Y208000D02*
D03*
D22*
X-80000Y380000D02*
D03*
X756000Y380000D02*
D03*
Y-80000D02*
D03*
X-80000Y-80000D02*
D03*
D23*
X618750Y79250D02*
D03*
Y99250D02*
D03*
X584000Y79250D02*
D03*
Y99250D02*
D03*
X601500Y79250D02*
D03*
Y99250D02*
D03*
D24*
X21500Y14000D02*
D03*
X27500D02*
D03*
X33500D02*
D03*
X39500D02*
D03*
X45500D02*
D03*
X51500D02*
D03*
X57500D02*
D03*
X63500D02*
D03*
X69500D02*
D03*
X75500D02*
D03*
X81500D02*
D03*
X87500D02*
D03*
X93500D02*
D03*
X99500D02*
D03*
X105500D02*
D03*
X111500D02*
D03*
X117500D02*
D03*
X123500D02*
D03*
X129500D02*
D03*
X135500D02*
D03*
X177500D02*
D03*
X183500D02*
D03*
X189500D02*
D03*
X195500D02*
D03*
X201500D02*
D03*
X207500D02*
D03*
X213500D02*
D03*
X219500D02*
D03*
X225500D02*
D03*
X231500D02*
D03*
X237500D02*
D03*
X243500D02*
D03*
X249500D02*
D03*
X255500D02*
D03*
X261500D02*
D03*
X267500D02*
D03*
X273500D02*
D03*
X279500D02*
D03*
X285500D02*
D03*
X291500D02*
D03*
X297500D02*
D03*
X303500D02*
D03*
X309500D02*
D03*
X315500D02*
D03*
X321500D02*
D03*
X327500D02*
D03*
X333500D02*
D03*
X339500D02*
D03*
X345500D02*
D03*
X351500D02*
D03*
X357500D02*
D03*
X363500D02*
D03*
X369500D02*
D03*
X375500D02*
D03*
X381500D02*
D03*
X387500D02*
D03*
X393500D02*
D03*
X399500D02*
D03*
X405500D02*
D03*
X411500D02*
D03*
X417500D02*
D03*
X423500D02*
D03*
X429500D02*
D03*
X435500D02*
D03*
X441500D02*
D03*
X447500D02*
D03*
X453500D02*
D03*
X459500D02*
D03*
X465500D02*
D03*
X471500D02*
D03*
X477500D02*
D03*
X483500D02*
D03*
X489500D02*
D03*
X495500D02*
D03*
X501500D02*
D03*
X507500D02*
D03*
X513500D02*
D03*
X519500D02*
D03*
X525500D02*
D03*
X531500D02*
D03*
X537500D02*
D03*
X543500D02*
D03*
X549500D02*
D03*
X555500D02*
D03*
X561500D02*
D03*
X567500D02*
D03*
X573500D02*
D03*
X579500D02*
D03*
X585500D02*
D03*
X591500D02*
D03*
X597500D02*
D03*
X603500D02*
D03*
X609500D02*
D03*
X615500D02*
D03*
X621500D02*
D03*
X627500D02*
D03*
X633500D02*
D03*
X639500D02*
D03*
X645500D02*
D03*
X651500D02*
D03*
D25*
X313750Y252750D02*
D03*
X303750D02*
D03*
X313750Y274750D02*
D03*
X303750D02*
D03*
X313750Y263750D02*
D03*
X303750D02*
D03*
X313750Y285750D02*
D03*
X303750D02*
D03*
D26*
X30000Y270000D02*
D03*
X646000D02*
D03*
D27*
X463536Y258000D02*
D03*
X387279D02*
D03*
X590678D02*
D03*
X539821D02*
D03*
X565250D02*
D03*
X642500Y96800D02*
D03*
D28*
X438136Y258000D02*
D03*
X361879D02*
D03*
D29*
X514393D02*
D03*
D30*
X656000Y60000D02*
D03*
X20000D02*
D03*
D31*
X642500Y122200D02*
D03*
M02*
