G04*
G04 #@! TF.GenerationSoftware,Altium Limited,Altium Designer,19.0.12 (326)*
G04*
G04 Layer_Color=8421504*
%FSLAX44Y44*%
%MOMM*%
G71*
G01*
G75*
G04:AMPARAMS|DCode=16|XSize=0.6mm|YSize=0.6mm|CornerRadius=0.06mm|HoleSize=0mm|Usage=FLASHONLY|Rotation=0.000|XOffset=0mm|YOffset=0mm|HoleType=Round|Shape=RoundedRectangle|*
%AMROUNDEDRECTD16*
21,1,0.6000,0.4800,0,0,0.0*
21,1,0.4800,0.6000,0,0,0.0*
1,1,0.1200,0.2400,-0.2400*
1,1,0.1200,-0.2400,-0.2400*
1,1,0.1200,-0.2400,0.2400*
1,1,0.1200,0.2400,0.2400*
%
%ADD16ROUNDEDRECTD16*%
%ADD17R,1.2700X4.8000*%
G04:AMPARAMS|DCode=18|XSize=1.3mm|YSize=0.8mm|CornerRadius=0.1mm|HoleSize=0mm|Usage=FLASHONLY|Rotation=180.000|XOffset=0mm|YOffset=0mm|HoleType=Round|Shape=RoundedRectangle|*
%AMROUNDEDRECTD18*
21,1,1.3000,0.6000,0,0,180.0*
21,1,1.1000,0.8000,0,0,180.0*
1,1,0.2000,-0.5500,0.3000*
1,1,0.2000,0.5500,0.3000*
1,1,0.2000,0.5500,-0.3000*
1,1,0.2000,-0.5500,-0.3000*
%
%ADD18ROUNDEDRECTD18*%
G04:AMPARAMS|DCode=19|XSize=0.6mm|YSize=0.6mm|CornerRadius=0.06mm|HoleSize=0mm|Usage=FLASHONLY|Rotation=90.000|XOffset=0mm|YOffset=0mm|HoleType=Round|Shape=RoundedRectangle|*
%AMROUNDEDRECTD19*
21,1,0.6000,0.4800,0,0,90.0*
21,1,0.4800,0.6000,0,0,90.0*
1,1,0.1200,0.2400,0.2400*
1,1,0.1200,0.2400,-0.2400*
1,1,0.1200,-0.2400,-0.2400*
1,1,0.1200,-0.2400,0.2400*
%
%ADD19ROUNDEDRECTD19*%
D16*
X165500Y102500D02*
D03*
Y92500D02*
D03*
X176500Y102500D02*
D03*
Y92500D02*
D03*
X198500Y102500D02*
D03*
Y92500D02*
D03*
X187500Y102500D02*
D03*
Y92500D02*
D03*
X302750Y94250D02*
D03*
Y84250D02*
D03*
X313750Y94250D02*
D03*
Y84250D02*
D03*
D17*
X345000Y143000D02*
D03*
Y208000D02*
D03*
X370428Y143000D02*
D03*
Y208000D02*
D03*
X395857Y143000D02*
D03*
Y208000D02*
D03*
X421286Y143000D02*
D03*
Y208000D02*
D03*
X446714Y143000D02*
D03*
Y208000D02*
D03*
X472143Y143000D02*
D03*
Y208000D02*
D03*
X497571Y143000D02*
D03*
Y208000D02*
D03*
X523000Y143000D02*
D03*
Y208000D02*
D03*
X319571D02*
D03*
Y143000D02*
D03*
X294143Y208000D02*
D03*
Y143000D02*
D03*
X268714Y208000D02*
D03*
Y143000D02*
D03*
X192428D02*
D03*
Y208000D02*
D03*
X217857Y143000D02*
D03*
Y208000D02*
D03*
X243286Y143000D02*
D03*
Y208000D02*
D03*
X116143Y143000D02*
D03*
Y208000D02*
D03*
X141571Y143000D02*
D03*
Y208000D02*
D03*
X167000Y143000D02*
D03*
Y208000D02*
D03*
X39857Y143000D02*
D03*
Y208000D02*
D03*
X65286Y143000D02*
D03*
Y208000D02*
D03*
X90714Y143000D02*
D03*
Y208000D02*
D03*
D18*
X618750Y79250D02*
D03*
Y99250D02*
D03*
X584000Y79250D02*
D03*
Y99250D02*
D03*
X601500Y79250D02*
D03*
Y99250D02*
D03*
D19*
X313750Y252750D02*
D03*
X303750D02*
D03*
X313750Y274750D02*
D03*
X303750D02*
D03*
X313750Y263750D02*
D03*
X303750D02*
D03*
X313750Y285750D02*
D03*
X303750D02*
D03*
M02*
