G04*
G04 #@! TF.GenerationSoftware,Altium Limited,Altium Designer,19.0.12 (326)*
G04*
G04 Layer_Color=16711935*
%FSLAX44Y44*%
%MOMM*%
G71*
G01*
G75*
%ADD22C,3.0000*%
%ADD24R,1.0500X2.9000*%
%ADD26C,5.1000*%
%ADD27C,1.7000*%
G04:AMPARAMS|DCode=28|XSize=1.624mm|YSize=1.624mm|CornerRadius=0.2405mm|HoleSize=0mm|Usage=FLASHONLY|Rotation=90.000|XOffset=0mm|YOffset=0mm|HoleType=Round|Shape=RoundedRectangle|*
%AMROUNDEDRECTD28*
21,1,1.6240,1.1430,0,0,90.0*
21,1,1.1430,1.6240,0,0,90.0*
1,1,0.4810,0.5715,0.5715*
1,1,0.4810,0.5715,-0.5715*
1,1,0.4810,-0.5715,-0.5715*
1,1,0.4810,-0.5715,0.5715*
%
%ADD28ROUNDEDRECTD28*%
G04:AMPARAMS|DCode=29|XSize=1.7mm|YSize=1.7mm|CornerRadius=0.45mm|HoleSize=0mm|Usage=FLASHONLY|Rotation=0.000|XOffset=0mm|YOffset=0mm|HoleType=Round|Shape=RoundedRectangle|*
%AMROUNDEDRECTD29*
21,1,1.7000,0.8000,0,0,0.0*
21,1,0.8000,1.7000,0,0,0.0*
1,1,0.9000,0.4000,-0.4000*
1,1,0.9000,-0.4000,-0.4000*
1,1,0.9000,-0.4000,0.4000*
1,1,0.9000,0.4000,0.4000*
%
%ADD29ROUNDEDRECTD29*%
%ADD30C,1.6000*%
G04:AMPARAMS|DCode=31|XSize=1.624mm|YSize=1.624mm|CornerRadius=0.2405mm|HoleSize=0mm|Usage=FLASHONLY|Rotation=0.000|XOffset=0mm|YOffset=0mm|HoleType=Round|Shape=RoundedRectangle|*
%AMROUNDEDRECTD31*
21,1,1.6240,1.1430,0,0,0.0*
21,1,1.1430,1.6240,0,0,0.0*
1,1,0.4810,0.5715,-0.5715*
1,1,0.4810,-0.5715,-0.5715*
1,1,0.4810,-0.5715,0.5715*
1,1,0.4810,0.5715,0.5715*
%
%ADD31ROUNDEDRECTD31*%
D22*
X-80000Y380000D02*
D03*
X756000Y380000D02*
D03*
Y-80000D02*
D03*
X-80000Y-80000D02*
D03*
D24*
X24500Y14000D02*
D03*
X30500D02*
D03*
X36500D02*
D03*
X42500D02*
D03*
X48500D02*
D03*
X54500D02*
D03*
X60500D02*
D03*
X66500D02*
D03*
X72500D02*
D03*
X78500D02*
D03*
X84500D02*
D03*
X90500D02*
D03*
X96500D02*
D03*
X102500D02*
D03*
X108500D02*
D03*
X114500D02*
D03*
X120500D02*
D03*
X126500D02*
D03*
X132500D02*
D03*
X138500D02*
D03*
X180500D02*
D03*
X186500D02*
D03*
X192500D02*
D03*
X198500D02*
D03*
X204500D02*
D03*
X210500D02*
D03*
X216500D02*
D03*
X222500D02*
D03*
X228500D02*
D03*
X234500D02*
D03*
X240500D02*
D03*
X246500D02*
D03*
X252500D02*
D03*
X258500D02*
D03*
X264500D02*
D03*
X270500D02*
D03*
X276500D02*
D03*
X282500D02*
D03*
X288500D02*
D03*
X294500D02*
D03*
X300500D02*
D03*
X306500D02*
D03*
X312500D02*
D03*
X318500D02*
D03*
X324500D02*
D03*
X330500D02*
D03*
X336500D02*
D03*
X342500D02*
D03*
X348500D02*
D03*
X354500D02*
D03*
X360500D02*
D03*
X366500D02*
D03*
X372500D02*
D03*
X378500D02*
D03*
X384500D02*
D03*
X390500D02*
D03*
X396500D02*
D03*
X402500D02*
D03*
X408500D02*
D03*
X414500D02*
D03*
X420500D02*
D03*
X426500D02*
D03*
X432500D02*
D03*
X438500D02*
D03*
X444500D02*
D03*
X450500D02*
D03*
X456500D02*
D03*
X462500D02*
D03*
X468500D02*
D03*
X474500D02*
D03*
X480500D02*
D03*
X486500D02*
D03*
X492500D02*
D03*
X498500D02*
D03*
X504500D02*
D03*
X510500D02*
D03*
X516500D02*
D03*
X522500D02*
D03*
X528500D02*
D03*
X534500D02*
D03*
X540500D02*
D03*
X546500D02*
D03*
X552500D02*
D03*
X558500D02*
D03*
X564500D02*
D03*
X570500D02*
D03*
X576500D02*
D03*
X582500D02*
D03*
X588500D02*
D03*
X594500D02*
D03*
X600500D02*
D03*
X606500D02*
D03*
X612500D02*
D03*
X618500D02*
D03*
X624500D02*
D03*
X630500D02*
D03*
X636500D02*
D03*
X642500D02*
D03*
X648500D02*
D03*
X654500D02*
D03*
D26*
X30000Y270000D02*
D03*
X646000D02*
D03*
D27*
X463536Y258000D02*
D03*
X387279D02*
D03*
X590678D02*
D03*
X539821D02*
D03*
X565250D02*
D03*
X642500Y96800D02*
D03*
D28*
X438136Y258000D02*
D03*
X361879D02*
D03*
D29*
X514393D02*
D03*
D30*
X656000Y60000D02*
D03*
X20000D02*
D03*
D31*
X642500Y122200D02*
D03*
M02*
