G04*
G04 #@! TF.GenerationSoftware,Altium Limited,Altium Designer,19.0.12 (326)*
G04*
G04 Layer_Color=255*
%FSLAX44Y44*%
%MOMM*%
G71*
G01*
G75*
G04:AMPARAMS|DCode=16|XSize=0.6mm|YSize=0.6mm|CornerRadius=0.06mm|HoleSize=0mm|Usage=FLASHONLY|Rotation=0.000|XOffset=0mm|YOffset=0mm|HoleType=Round|Shape=RoundedRectangle|*
%AMROUNDEDRECTD16*
21,1,0.6000,0.4800,0,0,0.0*
21,1,0.4800,0.6000,0,0,0.0*
1,1,0.1200,0.2400,-0.2400*
1,1,0.1200,-0.2400,-0.2400*
1,1,0.1200,-0.2400,0.2400*
1,1,0.1200,0.2400,0.2400*
%
%ADD16ROUNDEDRECTD16*%
%ADD17R,1.2700X4.8000*%
G04:AMPARAMS|DCode=18|XSize=1.3mm|YSize=0.8mm|CornerRadius=0.1mm|HoleSize=0mm|Usage=FLASHONLY|Rotation=180.000|XOffset=0mm|YOffset=0mm|HoleType=Round|Shape=RoundedRectangle|*
%AMROUNDEDRECTD18*
21,1,1.3000,0.6000,0,0,180.0*
21,1,1.1000,0.8000,0,0,180.0*
1,1,0.2000,-0.5500,0.3000*
1,1,0.2000,0.5500,0.3000*
1,1,0.2000,0.5500,-0.3000*
1,1,0.2000,-0.5500,-0.3000*
%
%ADD18ROUNDEDRECTD18*%
G04:AMPARAMS|DCode=19|XSize=0.6mm|YSize=0.6mm|CornerRadius=0.06mm|HoleSize=0mm|Usage=FLASHONLY|Rotation=90.000|XOffset=0mm|YOffset=0mm|HoleType=Round|Shape=RoundedRectangle|*
%AMROUNDEDRECTD19*
21,1,0.6000,0.4800,0,0,90.0*
21,1,0.4800,0.6000,0,0,90.0*
1,1,0.1200,0.2400,0.2400*
1,1,0.1200,0.2400,-0.2400*
1,1,0.1200,-0.2400,-0.2400*
1,1,0.1200,-0.2400,0.2400*
%
%ADD19ROUNDEDRECTD19*%
%ADD30C,1.6000*%
%ADD32C,1.0000*%
%ADD33R,0.4500X2.3000*%
%ADD37C,5.0000*%
G04:AMPARAMS|DCode=38|XSize=1.524mm|YSize=1.524mm|CornerRadius=0.1905mm|HoleSize=0mm|Usage=FLASHONLY|Rotation=90.000|XOffset=0mm|YOffset=0mm|HoleType=Round|Shape=RoundedRectangle|*
%AMROUNDEDRECTD38*
21,1,1.5240,1.1430,0,0,90.0*
21,1,1.1430,1.5240,0,0,90.0*
1,1,0.3810,0.5715,0.5715*
1,1,0.3810,0.5715,-0.5715*
1,1,0.3810,-0.5715,-0.5715*
1,1,0.3810,-0.5715,0.5715*
%
%ADD38ROUNDEDRECTD38*%
G04:AMPARAMS|DCode=39|XSize=1.6mm|YSize=1.6mm|CornerRadius=0.4mm|HoleSize=0mm|Usage=FLASHONLY|Rotation=0.000|XOffset=0mm|YOffset=0mm|HoleType=Round|Shape=RoundedRectangle|*
%AMROUNDEDRECTD39*
21,1,1.6000,0.8000,0,0,0.0*
21,1,0.8000,1.6000,0,0,0.0*
1,1,0.8000,0.4000,-0.4000*
1,1,0.8000,-0.4000,-0.4000*
1,1,0.8000,-0.4000,0.4000*
1,1,0.8000,0.4000,0.4000*
%
%ADD39ROUNDEDRECTD39*%
%ADD40C,0.8000*%
%ADD41C,1.5000*%
G04:AMPARAMS|DCode=42|XSize=1.524mm|YSize=1.524mm|CornerRadius=0.1905mm|HoleSize=0mm|Usage=FLASHONLY|Rotation=0.000|XOffset=0mm|YOffset=0mm|HoleType=Round|Shape=RoundedRectangle|*
%AMROUNDEDRECTD42*
21,1,1.5240,1.1430,0,0,0.0*
21,1,1.1430,1.5240,0,0,0.0*
1,1,0.3810,0.5715,-0.5715*
1,1,0.3810,-0.5715,-0.5715*
1,1,0.3810,-0.5715,0.5715*
1,1,0.3810,0.5715,0.5715*
%
%ADD42ROUNDEDRECTD42*%
D16*
X165500Y102500D02*
D03*
Y92500D02*
D03*
X176500Y102500D02*
D03*
Y92500D02*
D03*
X198500Y102500D02*
D03*
Y92500D02*
D03*
X187500Y102500D02*
D03*
Y92500D02*
D03*
X302750Y94250D02*
D03*
Y84250D02*
D03*
X313750Y94250D02*
D03*
Y84250D02*
D03*
D17*
X345000Y143000D02*
D03*
Y208000D02*
D03*
X370428Y143000D02*
D03*
Y208000D02*
D03*
X395857Y143000D02*
D03*
Y208000D02*
D03*
X421286Y143000D02*
D03*
Y208000D02*
D03*
X446714Y143000D02*
D03*
Y208000D02*
D03*
X472143Y143000D02*
D03*
Y208000D02*
D03*
X497571Y143000D02*
D03*
Y208000D02*
D03*
X523000Y143000D02*
D03*
Y208000D02*
D03*
X319571D02*
D03*
Y143000D02*
D03*
X294143Y208000D02*
D03*
Y143000D02*
D03*
X268714Y208000D02*
D03*
Y143000D02*
D03*
X192428D02*
D03*
Y208000D02*
D03*
X217857Y143000D02*
D03*
Y208000D02*
D03*
X243286Y143000D02*
D03*
Y208000D02*
D03*
X116143Y143000D02*
D03*
Y208000D02*
D03*
X141571Y143000D02*
D03*
Y208000D02*
D03*
X167000Y143000D02*
D03*
Y208000D02*
D03*
X39857Y143000D02*
D03*
Y208000D02*
D03*
X65286Y143000D02*
D03*
Y208000D02*
D03*
X90714Y143000D02*
D03*
Y208000D02*
D03*
D18*
X618750Y79250D02*
D03*
Y99250D02*
D03*
X584000Y79250D02*
D03*
Y99250D02*
D03*
X601500Y79250D02*
D03*
Y99250D02*
D03*
D19*
X313750Y252750D02*
D03*
X303750D02*
D03*
X313750Y274750D02*
D03*
X303750D02*
D03*
X313750Y263750D02*
D03*
X303750D02*
D03*
X313750Y285750D02*
D03*
X303750D02*
D03*
D30*
X463536Y258000D02*
D03*
X387279D02*
D03*
X590678D02*
D03*
X539821D02*
D03*
X565250D02*
D03*
X642500Y96800D02*
D03*
D32*
X-80000Y380000D02*
D03*
X756000Y380000D02*
D03*
Y-80000D02*
D03*
X-80000Y-80000D02*
D03*
D33*
X21500Y14000D02*
D03*
X27500D02*
D03*
X33500D02*
D03*
X39500D02*
D03*
X45500D02*
D03*
X51500D02*
D03*
X57500D02*
D03*
X63500D02*
D03*
X69500D02*
D03*
X75500D02*
D03*
X81500D02*
D03*
X87500D02*
D03*
X93500D02*
D03*
X99500D02*
D03*
X105500D02*
D03*
X111500D02*
D03*
X117500D02*
D03*
X123500D02*
D03*
X129500D02*
D03*
X135500D02*
D03*
X177500D02*
D03*
X183500D02*
D03*
X189500D02*
D03*
X195500D02*
D03*
X201500D02*
D03*
X207500D02*
D03*
X213500D02*
D03*
X219500D02*
D03*
X225500D02*
D03*
X231500D02*
D03*
X237500D02*
D03*
X243500D02*
D03*
X249500D02*
D03*
X255500D02*
D03*
X261500D02*
D03*
X267500D02*
D03*
X273500D02*
D03*
X279500D02*
D03*
X285500D02*
D03*
X291500D02*
D03*
X297500D02*
D03*
X303500D02*
D03*
X309500D02*
D03*
X315500D02*
D03*
X321500D02*
D03*
X327500D02*
D03*
X333500D02*
D03*
X339500D02*
D03*
X345500D02*
D03*
X351500D02*
D03*
X357500D02*
D03*
X363500D02*
D03*
X369500D02*
D03*
X375500D02*
D03*
X381500D02*
D03*
X387500D02*
D03*
X393500D02*
D03*
X399500D02*
D03*
X405500D02*
D03*
X411500D02*
D03*
X417500D02*
D03*
X423500D02*
D03*
X429500D02*
D03*
X435500D02*
D03*
X441500D02*
D03*
X447500D02*
D03*
X453500D02*
D03*
X459500D02*
D03*
X465500D02*
D03*
X471500D02*
D03*
X477500D02*
D03*
X483500D02*
D03*
X489500D02*
D03*
X495500D02*
D03*
X501500D02*
D03*
X507500D02*
D03*
X513500D02*
D03*
X519500D02*
D03*
X525500D02*
D03*
X531500D02*
D03*
X537500D02*
D03*
X543500D02*
D03*
X549500D02*
D03*
X555500D02*
D03*
X561500D02*
D03*
X567500D02*
D03*
X573500D02*
D03*
X579500D02*
D03*
X585500D02*
D03*
X591500D02*
D03*
X597500D02*
D03*
X603500D02*
D03*
X609500D02*
D03*
X615500D02*
D03*
X621500D02*
D03*
X627500D02*
D03*
X633500D02*
D03*
X639500D02*
D03*
X645500D02*
D03*
X651500D02*
D03*
D37*
X30000Y270000D02*
D03*
X646000D02*
D03*
D38*
X438136Y258000D02*
D03*
X361879D02*
D03*
D39*
X514393D02*
D03*
D40*
X676250Y159500D02*
D03*
Y123750D02*
D03*
Y135500D02*
D03*
Y147500D02*
D03*
X0Y159500D02*
D03*
Y123750D02*
D03*
Y135500D02*
D03*
Y147500D02*
D03*
D41*
X656000Y60000D02*
D03*
X20000D02*
D03*
D42*
X642500Y122200D02*
D03*
M02*
